<svg xmlns="http://www.w3.org/2000/svg" viewBox="0 0 600 600" fill="none" shape-rendering="auto" width="512" height="512"><metadata xmlns:rdf="http://www.w3.org/1999/02/22-rdf-syntax-ns#" xmlns:xsi="http://www.w3.org/2001/XMLSchema-instance" xmlns:dc="http://purl.org/dc/elements/1.1/" xmlns:dcterms="http://purl.org/dc/terms/"><rdf:RDF><rdf:Description><dc:title>Lorelei Neutral</dc:title><dc:creator>Lisa Wischofsky</dc:creator><dc:source xsi:type="dcterms:URI">https://www.figma.com/community/file/1198749693280469639</dc:source><dcterms:license xsi:type="dcterms:URI">https://creativecommons.org/publicdomain/zero/1.0/</dcterms:license><dc:rights>Remix of „Lorelei Neutral” (https://www.figma.com/community/file/1198749693280469639) by „Lisa Wischofsky”, licensed under „CC0 1.0” (https://creativecommons.org/publicdomain/zero/1.0/)</dc:rights></rdf:Description></rdf:RDF></metadata><mask id="viewboxMask"><rect width="600" height="600" rx="0" ry="0" x="0" y="0" fill="#fff" /></mask><g mask="url(#viewboxMask)"><rect fill="#ffffff" width="600" height="600" x="0" y="0" /><g transform="translate(-246 -234)"><path d="M467 377c15 1 32 5 44 15 4 3 8 7 9 11 1 3 1 5-2 6-3 0-6-3-8-5-11-8-24-13-38-13-8 0-15 2-23 4-15 3-29 11-38 23-3 3-5 7-10 8s-10-3-10-8c-1-4 2-8 4-11 12-15 30-25 49-29 7-2 15-2 23-1ZM672 387c5 2 10 7 13 11 3 3 5 7 5 11 0 6-6 10-12 8-5-2-6-7-10-11-4-3-9-7-13-8-12-4-24 1-32 9l-9 9c0-7 4-13 9-17 12-13 32-18 49-12Z" fill="#000000"/></g><g transform="translate(-246 -234)"><path d="M479 474c8 3 15 6 19 13h-5c-13-2-25-8-38-9-11-2-22-2-33 0 1-4 6-6 10-7 15-4 32-3 47 3ZM675 476l1 1-18 2c-9 1-17 5-26 8l-6 3c0-3 3-5 5-7l15-8c9-4 19-3 29 1ZM680 485c6 1 12 3 16 8 3 3 5 9 2 13s-8 5-12 2c-3-3-3-6-3-9-8-5-16-4-25-1 2 2 5 3 6 6 4 5 4 11 2 17-5 8-15 14-25 13-7-2-12-8-13-15l-8 10-4 5c-3-3-2-6-1-10 5-12 15-21 26-28 11-8 25-13 39-11ZM446 488c24 2 47 11 66 26 4 3 9 8 10 13 1 3-1 6-4 6l-6-5c-3-4-8-6-12-9 1 8 0 15-5 20-3 5-8 7-13 7-8 1-16-2-22-8-9-10-8-26 1-36-10-2-19-3-28-2-6 1-12 4-16 8-2 2-1 4-2 6-1 4-5 7-9 6-4 0-8-3-9-7-1-5 1-11 5-14 5-5 13-7 19-9 9-1 17-3 25-2Z" fill="#000000"/></g><g transform="translate(-246 -234)"></g><g transform="translate(-246 -234)"><path d="m636 651-7 8-17 16c-9 10-19 18-32 22-18 6-38 4-57 0-10-3-21-7-31-13l-6-5c0-3 2-4 4-4l17 5 33-4c13-2 27-3 39 0l5-1 19-8c4-2 8-3 13-3 6-4 13-10 20-13Z" fill="#000000"/></g><g transform="translate(-246 -234)"><path d="m591 528 2 2 7 22c4 8 10 15 15 23 4 6 6 13 5 20-1 6-4 12-9 16-7 7-16 12-25 16-5 3-11 4-17 2l5-4c11-9 25-14 36-24 2-2 4-6 4-9-1-7-5-11-8-16-5-9-10-16-13-25-2-7-4-16-2-23Z" fill="#000000"/></g><g transform="translate(-246 -234)"></g></g></svg>